HIERARCHY
ROOT Hips
{
	OFFSET 0.000000 0.000000 0.000000
	CHANNELS 6 Xposition Yposition Zposition Zrotation Yrotation Xrotation 
	JOINT LHipJoint
	{
		OFFSET 0.000000 0.000000 0.000000
		CHANNELS 3 Zrotation Yrotation Xrotation
		JOINT LeftUpLeg
		{
			OFFSET 1.363060 -1.794630 0.839290
			CHANNELS 3 Zrotation Yrotation Xrotation
			JOINT LeftLeg
			{
				OFFSET 2.448110 -6.726130 0.000000
				CHANNELS 3 Zrotation Yrotation Xrotation
				JOINT LeftFoot
				{
					OFFSET 2.562200 -7.039590 0.000000
					CHANNELS 3 Zrotation Yrotation Xrotation
					JOINT LeftToeBase
					{
						OFFSET 0.157640 -0.433110 2.322550
						CHANNELS 3 Zrotation Yrotation Xrotation
						End Site
						{
							OFFSET 0.000000 0.000000 0.000000
						}
					}
				}
			}
		}
	}
	JOINT RHipJoint
	{
		OFFSET 0.000000 0.000000 0.000000
		CHANNELS 3 Zrotation Yrotation Xrotation
		JOINT RightUpLeg
		{
			OFFSET -1.305520 -1.794630 0.839290
			CHANNELS 3 Zrotation Yrotation Xrotation
			JOINT RightLeg
			{
				OFFSET -2.542530 -6.985550 0.000000
				CHANNELS 3 Zrotation Yrotation Xrotation
				JOINT RightFoot
				{
					OFFSET -2.568260 -7.056230 0.000000
					CHANNELS 3 Zrotation Yrotation Xrotation
					JOINT RightToeBase
					{
						OFFSET -0.164730 -0.452590 2.363150
						CHANNELS 3 Zrotation Yrotation Xrotation
						End Site
						{
							OFFSET 0.000000 0.000000 0.000000
						}
					}
				}
			}
		}
	}
	JOINT LowerBack
	{
		OFFSET 0.000000 0.000000 0.000000
		CHANNELS 3 Zrotation Yrotation Xrotation
		JOINT Spine
		{
			OFFSET 0.028270 2.035590 -0.193380
			CHANNELS 3 Zrotation Yrotation Xrotation
			JOINT Spine1
			{
				OFFSET 0.056720 2.048850 -0.042750
				CHANNELS 3 Zrotation Yrotation Xrotation
				JOINT Neck
				{
					OFFSET 0.000000 0.000000 0.000000
					CHANNELS 3 Zrotation Yrotation Xrotation
					JOINT Neck1
					{
						OFFSET -0.054170 1.746240 0.172020
						CHANNELS 3 Zrotation Yrotation Xrotation
						JOINT Head
						{
							OFFSET 0.104070 1.761360 -0.123970
							CHANNELS 3 Zrotation Yrotation Xrotation
							End Site
							{
								OFFSET 0.000000 0.000000 0.000000
							}
						}
					}
				}
				JOINT LeftShoulder
				{
					OFFSET 0.000000 0.000000 0.000000
					CHANNELS 3 Zrotation Yrotation Xrotation
					JOINT LeftArm
					{
						OFFSET 3.362410 1.200890 -0.311210
						CHANNELS 3 Zrotation Yrotation Xrotation
						JOINT LeftForeArm
						{
							OFFSET 4.983000 -0.000000 -0.000000
							CHANNELS 3 Zrotation Yrotation Xrotation
							JOINT LeftHand
							{
								OFFSET 3.483560 -0.000000 -0.000000
								CHANNELS 3 Zrotation Yrotation Xrotation
								JOINT LeftFingerBase
								{
									OFFSET 0.000000 0.000000 0.000000
									CHANNELS 3 Zrotation Yrotation Xrotation
									JOINT LeftHandIndex1
									{
										OFFSET 0.715260 -0.000000 -0.000000
										CHANNELS 3 Zrotation Yrotation Xrotation
										End Site
										{
											OFFSET 0.000000 0.000000 0.000000
										}
									}
								}
								JOINT LThumb
								{
									OFFSET 0.000000 0.000000 0.000000
									CHANNELS 3 Zrotation Yrotation Xrotation
									End Site
									{
										OFFSET 0.000000 0.000000 0.000000
									}
								}
							}
						}
					}
				}
				JOINT RightShoulder
				{
					OFFSET 0.000000 0.000000 0.000000
					CHANNELS 3 Zrotation Yrotation Xrotation
					JOINT RightArm
					{
						OFFSET -3.136600 1.374050 -0.404650
						CHANNELS 3 Zrotation Yrotation Xrotation
						JOINT RightForeArm
						{
							OFFSET -5.241900 -0.000000 -0.000000
							CHANNELS 3 Zrotation Yrotation Xrotation
							JOINT RightHand
							{
								OFFSET -3.444170 -0.000000 -0.000000
								CHANNELS 3 Zrotation Yrotation Xrotation
								JOINT RightFingerBase
								{
									OFFSET 0.000000 0.000000 0.000000
									CHANNELS 3 Zrotation Yrotation Xrotation
									JOINT RightHandIndex1
									{
										OFFSET -0.622530 -0.000000 -0.000000
										CHANNELS 3 Zrotation Yrotation Xrotation
										End Site
										{
											OFFSET 0.000000 0.000000 0.000000
										}
									}
								}
								JOINT RThumb
								{
									OFFSET 0.000000 0.000000 0.000000
									CHANNELS 3 Zrotation Yrotation Xrotation
									End Site
									{
										OFFSET 0.000000 0.000000 0.000000
									}
								}
							}
						}
					}
				}
			}
		}
	}
}
MOTION
Frames: 7
Frame Time: 0.008333
-0.056144 16.760171 0.377167 -171.819159 84.158932 -152.910022 -9.575735 -0.476874 -1.415686 -18.989286 3.305303 -43.052717 -2.567093 1.113843 30.076943 1.609337 6.914469 -9.864202 -0.141899 0.000000 -5.671300 11.122162 -2.036457 -4.867485 -2.561720 -17.206578 -13.551469 0.960486 -3.574710 42.524929 0.326658 17.178661 19.574156 7.609800 -0.000000 -87.596700 -6.567725 0.825506 8.110635 -2.716207 1.038687 -1.925628 -8.320039 0.927745 -1.136039 9.894739 5.714407 3.426035 -5.295186 -0.453295 2.501359 0.000000 0.000000 0.000000 -5.464873 -2.603228 3.124725 -53.317089 3.846087 12.645150 -4.402712 -13.362583 -0.004937 0.744138 2.866051 0.021612 -0.108984 -0.022190 -0.000000 0.000000 0.000000 0.000000 0.000000 0.000000 0.000000 22.671171 6.075998 -0.703192 75.509895 24.558995 22.572143 1.483611 42.974818 -0.004038 -0.158517 12.280745 -0.014873 -0.019515 -0.265651 -0.000000 0.000000 0.000000 0.000000 0.000000 0.000000 0.000000 
0.094348 16.757875 0.327496 -174.852771 84.413462 -156.243365 -9.553453 -0.422398 -1.618897 -19.405641 3.544573 -42.306595 -2.579461 1.162085 30.978972 1.680707 7.069117 -11.051078 -0.348500 -0.000001 -5.962600 11.221847 -1.861490 -4.876624 -3.480659 -17.067778 -14.294643 0.731089 -3.727006 44.843283 0.141499 16.894084 21.557128 8.110700 0.000001 -85.558000 -6.998583 0.918874 8.343430 -2.797150 1.142820 -1.876810 -8.292283 1.034203 -1.129874 9.417976 5.969679 3.667906 -5.305369 -0.454834 2.548857 0.000000 0.000000 0.000000 -5.792651 -2.665472 3.089618 -53.062922 3.098921 12.380933 -4.448980 -12.464654 -0.005256 0.762411 3.010577 0.023109 -0.108626 -0.017466 -0.000000 0.000000 0.000000 0.000000 0.000000 0.000000 0.000000 22.170267 6.234005 -0.786403 75.857076 24.379559 21.548421 1.486226 41.907702 -0.005020 -0.528504 12.411834 -0.056485 -0.016217 -0.260251 -0.000000 0.000000 0.000000 0.000000 0.000000 0.000000 0.000000 
0.243835 16.760661 0.272851 -177.614091 84.641514 -159.298924 -9.542707 -0.364635 -1.804810 -19.792613 3.840509 -41.431705 -2.608732 1.176019 31.525052 1.751256 7.210941 -12.209143 -0.557900 -0.000000 -6.481700 11.293117 -1.687678 -4.876811 -4.266791 -16.899202 -15.081702 0.515568 -3.864769 47.098394 -0.062406 16.060882 23.426919 8.283400 0.000000 -82.928000 -7.310884 1.018139 8.542320 -2.854387 1.251023 -1.830732 -8.258194 1.144789 -1.109884 8.854645 6.250249 3.925357 -5.323937 -0.456756 2.599978 0.000000 0.000000 0.000000 -6.152505 -2.713036 3.047045 -52.911871 2.223287 11.892086 -4.480806 -11.492276 -0.005438 0.908277 3.127607 0.027907 -0.106870 -0.011344 -0.000000 0.000000 0.000000 0.000000 0.000000 0.000000 0.000000 21.604974 6.400818 -0.867164 76.150913 24.159089 20.519274 1.496688 40.789431 -0.005676 -0.860938 12.462280 -0.094197 -0.012729 -0.253299 -0.000000 0.000000 0.000000 0.000000 0.000000 0.000000 0.000000 
0.392859 16.767923 0.213162 -179.868702 84.824338 -161.839783 -9.542848 -0.309134 -1.968665 -20.122246 4.165566 -40.447688 -2.644113 1.159224 31.759348 1.818952 7.349093 -13.269261 -0.758100 -0.000000 -7.129800 11.341060 -1.522956 -4.870815 -4.903535 -16.718804 -15.899036 0.318515 -3.990316 49.260124 -0.281238 14.676180 25.088177 8.060100 0.000000 -79.878800 -7.491423 1.114634 8.705008 -2.886031 1.355486 -1.784130 -8.221586 1.252298 -1.063977 8.226467 6.537878 4.174782 -5.353050 -0.458894 2.648165 0.000000 0.000000 0.000000 -6.531495 -2.676899 2.995835 -52.861005 1.147688 11.252395 -4.493959 -10.446844 -0.005481 1.205547 3.202364 0.036708 -0.103405 -0.003802 -0.000000 0.000000 0.000000 0.000000 0.000000 0.000000 0.000000 21.007605 6.559068 -0.947051 76.371040 23.917376 19.527336 1.517612 39.640990 -0.005914 -1.125980 12.427079 -0.123709 -0.009199 -0.244802 0.000000 0.000000 0.000000 0.000000 0.000000 0.000000 0.000000 
0.541886 16.779200 0.149070 178.413521 84.953398 -163.834216 -9.552136 -0.257329 -2.106492 -20.389399 4.486696 -39.365069 -2.677200 1.115452 31.720552 1.882226 7.496707 -14.171243 -0.938400 -0.000000 -7.797100 11.371152 -1.370687 -4.860687 -5.403141 -16.540023 -16.731855 0.141757 -4.106660 51.303132 -0.510039 12.795129 26.443064 7.426400 0.000001 -76.640600 -7.555841 1.202269 8.830656 -2.895944 1.451094 -1.737660 -8.186676 1.351472 -0.995467 7.563901 6.821997 4.408784 -5.393569 -0.461241 2.691476 0.000000 0.000000 0.000000 -6.913990 -2.570799 2.938813 -52.906764 -0.085345 10.471872 -4.485489 -9.388639 -0.005424 1.663642 3.225142 0.049611 -0.097908 0.004756 0.000000 0.000000 0.000000 0.000000 0.000000 0.000000 0.000000 20.417079 6.700376 -1.020712 76.498988 23.654459 18.592410 1.550303 38.487463 -0.005694 -1.291822 12.299346 -0.140921 -0.005912 -0.234940 0.000000 0.000000 0.000000 0.000000 0.000000 0.000000 0.000000 
0.691185 16.794179 0.081308 177.251206 85.021713 -165.258242 -9.568858 -0.210555 -2.216190 -20.591178 4.773547 -38.201216 -2.701287 1.049592 31.454169 1.939328 7.661727 -14.875062 -1.090800 0.000000 -8.380700 11.387656 -1.233848 -4.847587 -5.775386 -16.362776 -17.569424 -0.015071 -4.216995 53.205998 -0.741811 10.522510 27.400611 6.426800 0.000000 -73.441400 -7.521919 1.276087 8.920624 -2.888264 1.533585 -1.688375 -8.157119 1.438533 -0.895376 6.896225 7.078151 4.604949 -5.446101 -0.463616 2.723723 0.000000 0.000000 0.000000 -7.287382 -2.344967 2.874428 -53.037829 -1.525120 9.643898 -4.454228 -8.341099 -0.005339 2.273378 3.181789 0.065517 -0.090368 0.013986 0.000000 0.000000 0.000000 0.000000 0.000000 0.000000 0.000000 19.870094 6.802478 -1.089622 76.523778 23.394861 17.752426 1.595957 37.342471 -0.005030 -1.341167 12.084566 -0.144035 -0.002977 -0.223827 0.000000 0.000000 0.000000 0.000000 0.000000 0.000000 0.000000 
0.840867 16.812662 0.010803 176.621150 85.024589 -166.130309 -9.590888 -0.168036 -2.295172 -20.729715 5.000984 -36.977306 -2.712220 0.967145 31.006369 1.988904 7.847750 -15.361461 -1.210399 0.000000 -8.807200 11.394524 -1.115184 -4.829912 -6.031155 -16.179008 -18.404861 -0.154407 -4.323653 54.952896 -0.967497 8.009456 27.892031 5.163101 0.000000 -70.456500 -7.408110 1.334501 8.971679 -2.866888 1.601408 -1.643460 -8.135601 1.510646 -0.788096 6.252715 7.315822 4.781081 -5.507957 -0.466155 2.750664 0.000000 0.000000 0.000000 -7.643891 -2.120624 2.811680 -53.248769 -2.975746 8.725961 -4.400663 -7.446455 -0.005290 3.010438 3.073481 0.082421 -0.080801 0.022866 0.000000 0.000000 0.000000 0.000000 0.000000 0.000000 0.000000 19.390329 6.879413 -1.140511 76.435551 23.105900 16.980832 1.653847 36.232973 -0.003989 -1.249680 11.786200 -0.130947 -0.000769 -0.211900 0.000000 0.000000 0.000000 0.000000 0.000000 0.000000 0.000000 
